<?xml version="1.0" standalone="no"?>
<!DOCTYPE svg PUBLIC "-//W3C//DTD SVG 20010904//EN"
 "http://www.w3.org/TR/2001/REC-SVG-20010904/DTD/svg10.dtd">
<svg version="1.0" xmlns="http://www.w3.org/2000/svg"
 width="1536.000000pt" height="1536.000000pt" viewBox="0 0 1536.000000 1536.000000"
 preserveAspectRatio="xMidYMid meet">
<metadata>
Created by potrace 1.14, written by Peter Selinger 2001-2017
</metadata>
<g transform="translate(0.000000,1536.000000) scale(0.100000,-0.100000)"
fill="#000000" stroke="none">
<path d="M4423 15193 c17 -474 160 -833 550 -1373 370 -512 601 -781 1269
-1475 63 -65 78 -86 78 -111 0 -32 -38 -96 -109 -184 -219 -270 -532 -728
-701 -1025 -114 -201 -251 -473 -335 -665 -20 -47 -43 -98 -50 -115 -24 -56
-87 -220 -105 -275 -10 -30 -30 -86 -44 -125 -117 -327 -258 -964 -301 -1365
-25 -224 -15 -565 19 -715 66 -287 173 -591 348 -985 81 -182 240 -477 376
-700 53 -85 113 -184 135 -220 121 -198 382 -588 586 -875 83 -117 396 -536
453 -605 177 -218 507 -661 868 -1165 382 -533 363 -505 427 -613 l56 -94 -24
-22 c-13 -13 -87 -81 -164 -151 -77 -71 -204 -192 -283 -269 -265 -261 -1081
-1102 -1248 -1287 -32 -36 -203 -222 -379 -413 -176 -192 -321 -352 -323 -357
-2 -5 944 -9 2102 -9 1158 0 2106 3 2106 6 0 22 -197 566 -282 779 -214 537
-476 1062 -720 1447 -37 59 -68 114 -68 122 0 8 44 56 98 107 84 80 230 199
902 734 151 120 769 615 1227 982 396 318 430 347 638 534 404 365 690 720
864 1069 101 204 156 378 186 593 17 121 20 521 5 648 -25 202 -32 250 -51
349 -19 94 -31 144 -60 248 -5 17 -13 47 -18 65 -4 17 -18 59 -31 92 -12 33
-31 85 -42 115 -34 96 -145 317 -224 449 -207 347 -467 625 -929 992 -148 118
-342 268 -430 333 -88 66 -182 136 -210 157 -27 20 -111 80 -185 132 -74 53
-155 110 -180 129 -48 35 -790 528 -962 639 -165 107 -524 334 -788 499 -135
84 -270 169 -300 188 -30 20 -134 85 -230 145 -187 118 -370 233 -435 275 -84
55 -287 214 -398 313 l-40 36 147 172 c207 242 246 282 915 956 328 330 698
706 821 835 124 129 236 246 250 260 64 65 263 287 372 413 107 124 412 502
432 535 6 9 -79 12 -410 12 -411 0 -417 0 -400 -19 23 -26 16 -45 -42 -107
-47 -50 -83 -90 -358 -394 -336 -373 -487 -531 -526 -551 -28 -14 -74 -23
-156 -30 -64 -5 -173 -15 -242 -22 -174 -16 -604 -16 -705 2 -215 36 -429 155
-512 285 -32 50 -37 163 -10 213 27 50 80 98 140 128 104 51 198 172 227 295
8 30 16 58 19 62 5 6 500 48 756 64 33 2 114 8 180 14 66 5 152 12 190 14 175
13 365 29 420 36 33 4 -889 8 -2049 9 l-2109 1 6 -167z m1667 7 c0 -6 -38 -10
-95 -10 -57 0 -95 4 -95 10 0 6 38 10 95 10 57 0 95 -4 95 -10z m-397 -17 c-7
-2 -21 -2 -30 0 -10 3 -4 5 12 5 17 0 24 -2 18 -5z m640 0 c-7 -2 -21 -2 -30
0 -10 3 -4 5 12 5 17 0 24 -2 18 -5z m-786 -19 c-3 -3 -12 -4 -19 -1 -8 3 -5
6 6 6 11 1 17 -2 13 -5z m916 -1 c-7 -2 -19 -2 -25 0 -7 3 -2 5 12 5 14 0 19
-2 13 -5z m-1429 -168 c-14 -14 -28 -25 -31 -25 -4 0 4 11 17 25 13 14 27 25
31 25 5 0 -3 -11 -17 -25z m1303 -177 c-3 -8 -6 -5 -6 6 -1 11 2 17 5 13 3 -3
4 -12 1 -19z m-1337 -18 c0 -5 -2 -10 -4 -10 -3 0 -8 5 -11 10 -3 6 -1 10 4
10 6 0 11 -4 11 -10z m1317 -162 c-2 -24 -4 -5 -4 42 0 47 2 66 4 43 2 -24 2
-62 0 -85z m-1282 62 c3 -5 1 -10 -4 -10 -6 0 -11 5 -11 10 0 6 2 10 4 10 3 0
8 -4 11 -10z m20 -50 c3 -5 1 -10 -4 -10 -6 0 -11 5 -11 10 0 6 2 10 4 10 3 0
8 -4 11 -10z m20 -50 c3 -5 1 -10 -4 -10 -6 0 -11 5 -11 10 0 6 2 10 4 10 3 0
8 -4 11 -10z m1238 -377 c-7 -2 -19 -2 -25 0 -7 3 -2 5 12 5 14 0 19 -2 13 -5z
m-1048 -23 c3 -5 1 -10 -4 -10 -6 0 -11 5 -11 10 0 6 2 10 4 10 3 0 8 -4 11
-10z m968 3 c-7 -2 -21 -2 -30 0 -10 3 -4 5 12 5 17 0 24 -2 18 -5z m-90 -20
c-7 -2 -21 -2 -30 0 -10 3 -4 5 12 5 17 0 24 -2 18 -5z m-853 -34 c0 -6 -4 -7
-10 -4 -5 3 -10 11 -10 16 0 6 5 7 10 4 6 -3 10 -11 10 -16z m748 14 c-10 -2
-28 -2 -40 0 -13 2 -5 4 17 4 22 1 32 -1 23 -4z m-130 -20 c-10 -2 -26 -2 -35
0 -10 3 -2 5 17 5 19 0 27 -2 18 -5z m-130 -20 c-10 -2 -28 -2 -40 0 -13 2 -5
4 17 4 22 1 32 -1 23 -4z m-205 -20 c-7 -2 -21 -2 -30 0 -10 3 -4 5 12 5 17 0
24 -2 18 -5z m2337 -134 c0 -28 -210 -271 -384 -444 -164 -163 -201 -196 -260
-224 -63 -30 -75 -33 -140 -28 -39 2 -111 12 -161 22 -124 24 -490 25 -620 1
-120 -22 -204 -42 -297 -72 -43 -14 -82 -23 -87 -20 -5 3 -69 83 -142 177 -74
94 -169 214 -211 268 -43 53 -78 101 -78 107 0 7 10 14 23 17 12 3 58 15 102
27 44 11 100 25 125 29 188 36 245 44 522 71 58 6 312 15 565 20 252 5 508 12
568 15 132 8 408 34 414 41 9 9 61 3 61 -7z m-622 -2515 c20 -8 72 -35 115
-60 67 -40 77 -50 77 -74 0 -15 -6 -33 -14 -39 -20 -17 -345 -56 -358 -43 -21
21 -47 209 -31 225 13 14 173 7 211 -9z m-481 -86 c10 -12 23 -89 27 -148 1
-27 19 -23 -199 -50 -227 -27 -259 -30 -266 -23 -4 4 -11 27 -15 50 -6 40 -5
42 22 48 53 11 218 65 304 99 96 38 113 41 127 24z m1125 -303 c44 -15 111
-50 168 -89 138 -93 220 -144 460 -289 330 -199 540 -338 540 -358 0 -9 -10
-12 -105 -34 -38 -9 -97 -22 -130 -30 -76 -17 -356 -69 -455 -84 -41 -6 -100
-16 -130 -21 -30 -5 -91 -14 -135 -20 -106 -15 -198 -29 -265 -40 -30 -5 -113
-19 -185 -31 -71 -11 -281 -52 -465 -91 -184 -38 -359 -74 -387 -79 -52 -9
-121 -22 -213 -39 -25 -5 -71 -14 -102 -20 -32 -5 -84 -15 -115 -21 -59 -10
-178 -32 -383 -68 -63 -11 -175 -31 -249 -45 -180 -35 -171 -36 -171 22 1 82
25 153 108 317 44 88 89 187 100 220 52 160 65 194 99 255 52 94 168 205 268
257 134 68 257 104 460 133 44 6 107 15 140 20 33 5 107 17 165 25 192 29 679
121 689 130 2 3 53 5 112 5 88 0 120 -4 181 -25z m1505 -1001 c-3 -3 -12 -4
-19 -1 -8 3 -5 6 6 6 11 1 17 -2 13 -5z m-79 -21 c-10 -2 -26 -2 -35 0 -10 3
-2 5 17 5 19 0 27 -2 18 -5z m-115 -20 c-7 -2 -21 -2 -30 0 -10 3 -4 5 12 5
17 0 24 -2 18 -5z m-105 -20 c-10 -2 -26 -2 -35 0 -10 3 -2 5 17 5 19 0 27 -2
18 -5z m-105 -20 c-7 -2 -21 -2 -30 0 -10 3 -4 5 12 5 17 0 24 -2 18 -5z
m-100 -20 c-13 -2 -35 -2 -50 0 -16 2 -5 4 22 4 28 0 40 -2 28 -4z m-116 -19
c-3 -3 -12 -4 -19 -1 -8 3 -5 6 6 6 11 1 17 -2 13 -5z m-799 -111 c-10 -2 -26
-2 -35 0 -10 3 -2 5 17 5 19 0 27 -2 18 -5z m79 1 c-3 -3 -12 -4 -19 -1 -8 3
-5 6 6 6 11 1 17 -2 13 -5z m1768 -14 c3 -5 1 -10 -4 -10 -6 0 -11 5 -11 10 0
6 2 10 4 10 3 0 8 -4 11 -10z m-1982 -7 c-7 -2 -19 -2 -25 0 -7 3 -2 5 12 5
14 0 19 -2 13 -5z m-63 -20 c-8 -3 -22 -11 -30 -17 -13 -10 -13 -9 -1 7 7 9
21 17 30 16 13 0 14 -1 1 -6z m2105 -13 c3 -5 1 -10 -4 -10 -6 0 -11 5 -11 10
0 6 2 10 4 10 3 0 8 -4 11 -10z m-2155 -24 c0 -2 -8 -10 -17 -17 -16 -13 -17
-12 -4 4 13 16 21 21 21 13z m-571 -97 c19 -7 31 -18 31 -29 0 -10 9 -119 20
-242 12 -123 23 -254 26 -293 2 -38 9 -108 14 -155 5 -47 12 -128 15 -181 l7
-97 -94 -16 c-154 -28 -296 -61 -842 -196 -287 -71 -566 -138 -621 -149 -134
-27 -418 -63 -426 -53 -31 36 -44 347 -20 492 7 41 37 174 66 295 29 121 59
247 67 280 14 59 15 60 53 67 22 3 65 11 95 16 30 6 82 15 115 21 33 5 87 15
120 21 58 11 96 17 220 39 33 5 85 15 115 20 30 6 147 26 260 46 113 19 284
49 380 66 96 17 201 34 234 39 32 5 61 11 64 14 9 10 67 7 101 -5z m348 -271
c-3 -8 -6 -5 -6 6 -1 11 2 17 5 13 3 -3 4 -12 1 -19z m2968 -28 c3 -5 1 -10
-4 -10 -6 0 -11 5 -11 10 0 6 2 10 4 10 3 0 8 -4 11 -10z m-2988 -97 c-2 -16
-4 -3 -4 27 0 30 2 43 4 28 2 -16 2 -40 0 -55z m3053 52 c19 -22 8 -25 -12 -3
-10 10 -14 18 -9 18 5 0 14 -7 21 -15z m0 -50 c0 -9 -9 -15 -22 -14 -17 1 -19
2 -5 6 9 2 17 9 17 14 0 5 2 9 5 9 3 0 5 -7 5 -15z m-157 -32 c-7 -2 -21 -2
-30 0 -10 3 -4 5 12 5 17 0 24 -2 18 -5z m-140 -20 c-7 -2 -19 -2 -25 0 -7 3
-2 5 12 5 14 0 19 -2 13 -5z m-140 -20 c-7 -2 -21 -2 -30 0 -10 3 -4 5 12 5
17 0 24 -2 18 -5z m-2616 -35 c-3 -7 -5 -2 -5 12 0 14 2 19 5 13 2 -7 2 -19 0
-25z m2426 15 c-13 -2 -33 -2 -45 0 -13 2 -3 4 22 4 25 0 35 -2 23 -4z m-263
-13 c0 -5 -7 -10 -16 -10 -8 0 -12 5 -9 10 3 6 10 10 16 10 5 0 9 -4 9 -10z
m-2143 -117 c-3 -10 -5 -2 -5 17 0 19 2 27 5 18 2 -10 2 -26 0 -35z m1260 -19
c-3 -3 -12 -4 -19 -1 -8 3 -5 6 6 6 11 1 17 -2 13 -5z m-100 -20 c-3 -3 -12
-4 -19 -1 -8 3 -5 6 6 6 11 1 17 -2 13 -5z m-97 -14 c0 -5 -10 -10 -22 -9 -22
0 -22 1 -3 9 11 5 21 9 23 9 1 1 2 -3 2 -9z m-1043 -32 c-3 -8 -6 -5 -6 6 -1
11 2 17 5 13 3 -3 4 -12 1 -19z m953 12 c0 -5 -10 -10 -22 -10 -19 0 -20 2 -8
10 19 13 30 13 30 0z m-95 -20 c3 -5 1 -10 -4 -10 -6 0 -11 5 -11 10 0 6 2 10
4 10 3 0 8 -4 11 -10z m2611 -34 c121 -32 182 -72 309 -200 348 -353 591 -812
679 -1281 10 -49 21 -109 26 -133 14 -75 13 -292 -2 -297 -7 -2 -94 -9 -193
-16 -340 -20 -608 -41 -700 -53 -22 -3 -85 -10 -140 -16 -244 -27 -519 -67
-830 -121 -325 -57 -308 -53 -1190 -252 -258 -59 -492 -113 -520 -121 -27 -8
-108 -17 -180 -21 -132 -6 -324 -26 -450 -46 -103 -16 -513 -96 -637 -125
-449 -102 -915 -174 -1134 -174 l-83 0 -61 89 c-122 183 -301 506 -354 641
-10 25 -24 61 -33 80 -8 19 -19 45 -24 58 -5 12 -13 32 -18 45 -56 139 -127
361 -165 522 -45 188 -80 364 -73 371 6 6 126 44 267 83 19 5 64 18 100 29
465 145 917 263 1513 398 81 18 203 47 270 63 277 68 977 206 1252 246 55 8
129 19 165 24 36 6 106 15 155 21 50 6 124 15 165 20 41 5 116 14 165 20 50 6
124 15 165 21 119 15 490 57 690 78 182 19 306 33 420 46 158 17 382 18 446 1z
m-3319 -122 c-3 -3 -12 -4 -19 -1 -8 3 -5 6 6 6 11 1 17 -2 13 -5z m160 0 c-3
-3 -12 -4 -19 -1 -8 3 -5 6 6 6 11 1 17 -2 13 -5z m1023 -2585 c43 -24 61 -42
115 -114 78 -102 203 -246 315 -360 155 -159 192 -235 194 -405 1 -65 -5 -124
-13 -155 -31 -108 -237 -461 -332 -569 -51 -59 -85 -71 -386 -137 -69 -15
-130 -28 -175 -39 -48 -11 -726 -162 -858 -191 -47 -10 -134 -30 -194 -44 -60
-14 -128 -25 -151 -25 -81 0 -63 -21 -629 740 -120 162 -287 386 -370 498 -83
111 -157 221 -165 244 -14 41 -13 42 15 65 80 63 247 119 459 153 223 35 243
39 395 74 191 44 642 124 825 146 315 38 558 80 730 126 61 17 191 13 225 -7z
m1032 -1994 c-7 -13 -181 -172 -313 -286 -85 -73 -404 -332 -670 -544 -220
-175 -531 -439 -583 -494 -38 -40 -58 -39 -87 3 -13 19 -98 130 -189 246 -390
500 -560 721 -560 728 0 17 337 115 640 186 278 65 720 136 950 152 41 3 89 8
105 11 33 7 683 20 702 14 8 -2 10 -9 5 -16z m-1544 -2306 c41 -79 98 -189
127 -244 125 -238 205 -395 205 -404 0 -10 -163 -91 -184 -91 -6 0 -16 -4 -22
-9 -5 -4 -46 -18 -92 -30 -110 -29 -236 -30 -334 0 -81 24 -235 28 -362 10
-39 -6 -107 -15 -151 -20 -44 -6 -101 -13 -127 -16 -45 -6 -48 -5 -63 25 -9
17 -12 36 -8 43 4 7 80 81 168 164 88 83 293 279 455 436 162 157 299 285 304
283 5 -1 43 -67 84 -147z m-1158 -953 c0 -3 -4 -8 -10 -11 -5 -3 -10 -1 -10 4
0 6 5 11 10 11 6 0 10 -2 10 -4z m1535 -16 c26 -11 60 -30 76 -41 69 -49 157
-237 234 -499 20 -69 41 -137 47 -152 5 -15 7 -32 3 -37 -7 -13 -484 -14 -815
-2 -206 7 -217 9 -268 35 -142 72 -209 191 -200 355 4 61 10 88 30 122 56 95
148 148 303 174 55 9 123 21 150 26 28 5 81 13 119 19 38 5 71 12 74 15 3 3
49 5 103 5 75 0 108 -5 144 -20z m-1498 4 c-3 -3 -12 -4 -19 -1 -8 3 -5 6 6 6
11 1 17 -2 13 -5z m-217 -167 c0 -2 -17 -19 -37 -38 l-38 -34 34 38 c33 34 41
42 41 34z m-240 -247 c0 -5 -5 -10 -11 -10 -5 0 -7 5 -4 10 3 6 8 10 11 10 2
0 4 -4 4 -10z m750 -21 c0 -11 -4 -17 -10 -14 -5 3 -10 13 -10 21 0 8 5 14 10
14 6 0 10 -9 10 -21z m-975 -219 c-16 -16 -34 -30 -39 -30 -6 0 4 14 23 30 44
39 53 39 16 0z m1082 -136 c-3 -3 -12 -4 -19 -1 -8 3 -5 6 6 6 11 1 17 -2 13
-5z m-74 -21 c-7 -2 -19 -2 -25 0 -7 3 -2 5 12 5 14 0 19 -2 13 -5z m-220 -20
c-13 -2 -35 -2 -50 0 -16 2 -5 4 22 4 28 0 40 -2 28 -4z m-995 -33 c-7 -11
-17 -20 -22 -20 -5 0 -1 9 9 20 10 11 20 20 22 20 2 0 -2 -9 -9 -20z"/>
</g>
</svg>
